<svg xmlns="http://www.w3.org/2000/svg" viewBox="0 0 200 200">
  <defs>
    <linearGradient id="bgP" x1="0%" y1="0%" x2="100%" y2="100%">
      <stop offset="0%" style="stop-color:#FFF8DC"/>
      <stop offset="100%" style="stop-color:#FFD700"/>
    </linearGradient>
  </defs>
  <circle cx="100" cy="100" r="95" fill="url(#bgP)" stroke="#FFA500" stroke-width="3"/>
  <!-- Sun rays -->
  <g fill="#FFA500" opacity="0.6">
    <rect x="95" y="30" width="10" height="25" rx="5"/>
    <rect x="95" y="145" width="10" height="25" rx="5"/>
    <rect x="30" y="95" width="25" height="10" rx="5"/>
    <rect x="145" y="95" width="25" height="10" rx="5"/>
    <rect x="47" y="47" width="10" height="25" rx="5" transform="rotate(45 52 59.5)"/>
    <rect x="143" y="47" width="10" height="25" rx="5" transform="rotate(-45 148 59.5)"/>
    <rect x="47" y="128" width="10" height="25" rx="5" transform="rotate(-45 52 140.5)"/>
    <rect x="143" y="128" width="10" height="25" rx="5" transform="rotate(45 148 140.5)"/>
  </g>
  <!-- Sun center -->
  <circle cx="100" cy="100" r="45" fill="#FFA500"/>
  <circle cx="100" cy="100" r="38" fill="#FFD700"/>
  <!-- P letter -->
  <text x="100" y="115" font-family="Arial, sans-serif" font-size="45" font-weight="bold" fill="white" text-anchor="middle">P</text>
</svg>